G04 DipTrace 3.0.0.2*
G04 BottomMask.gbr*
%MOIN*%
G04 #@! TF.FileFunction,Soldermask,Bot*
G04 #@! TF.Part,Single*
%AMOUTLINE1*
4,1,4,
0.144762,-0.027839,
-0.027839,0.144762,
-0.144762,0.027839,
0.027839,-0.144762,
0.144762,-0.027839,
0*%
%AMOUTLINE4*
4,1,4,
0.027839,0.144762,
-0.144762,-0.027839,
-0.027839,-0.144762,
0.144762,0.027839,
0.027839,0.144762,
0*%
%AMOUTLINE7*
4,1,4,
-0.144762,0.027839,
0.027839,-0.144762,
0.144762,-0.027839,
-0.027839,0.144762,
-0.144762,0.027839,
0*%
%AMOUTLINE10*
4,1,4,
-0.027839,-0.144762,
0.144762,0.027839,
0.027839,0.144762,
-0.144762,-0.027839,
-0.027839,-0.144762,
0*%
%ADD35C,0.137795*%
%ADD36C,0.070866*%
%ADD37C,0.106299*%
%ADD38C,0.275591*%
%ADD46C,0.137795*%
%ADD48O,0.070866X0.086614*%
%ADD50R,0.070866X0.086614*%
%ADD52R,0.106299X0.066929*%
%ADD58O,0.086614X0.066929*%
%ADD60O,0.086614X0.106299*%
%ADD62R,0.086614X0.106299*%
%ADD66O,0.086614X0.066929*%
%ADD68R,0.106299X0.086614*%
%ADD70O,0.066929X0.086614*%
%ADD72R,0.066929X0.066929*%
%ADD74R,0.066929X0.086614*%
%ADD76O,0.066929X0.086614*%
%ADD85OUTLINE1*%
%ADD88OUTLINE4*%
%ADD91OUTLINE7*%
%ADD94OUTLINE10*%
%FSLAX26Y26*%
G04*
G70*
G90*
G75*
G01*
G04 BotMask*
%LPD*%
D76*
X5671654Y4152756D3*
D74*
X5571654D3*
D72*
X4768504Y2866142D3*
D70*
X4868504D3*
X4968504D3*
X5068504D3*
X5168504D3*
X5268504D3*
X5368504D3*
X5468504D3*
X5568504D3*
X5668504D3*
X5768504D3*
X5868504D3*
X5968504D3*
X6068504D3*
X6168504D3*
X6268504D3*
X6368504D3*
X6468504D3*
X6568504D3*
X6668504D3*
Y3466142D3*
X6568504D3*
X6468504D3*
X6368504D3*
X6268504D3*
X6168504D3*
X6068504D3*
X5968504D3*
X5868504D3*
X5768504D3*
X5668504D3*
X5568504D3*
X5468504D3*
X5368504D3*
X5268504D3*
X5168504D3*
X5068504D3*
X4968504D3*
X4868504D3*
X4768504D3*
D68*
X3280413Y3165600D3*
Y3559301D3*
Y3362450D3*
Y2968749D3*
D66*
X6090551Y6921260D3*
Y7021261D3*
Y7121260D3*
Y7221260D3*
Y6821259D3*
Y6721260D3*
Y6621259D3*
Y6521260D3*
X4196457Y6234794D3*
Y6334795D3*
Y6434794D3*
Y6534794D3*
Y6134793D3*
Y6034794D3*
Y5934793D3*
Y5834794D3*
X4196802Y7090009D3*
Y7190010D3*
Y7290009D3*
Y7390009D3*
Y6990008D3*
Y6890009D3*
Y6790008D3*
Y6690009D3*
Y7490009D3*
Y7590009D3*
X6090551Y5836220D3*
Y5936222D3*
Y6036220D3*
Y6136220D3*
Y6236220D3*
Y6336220D3*
D35*
X2287402Y7948819D3*
X7944882D3*
X2287402Y2291339D3*
X7944882D3*
X7988139Y3348475D3*
X2247983D3*
Y6887845D3*
X7988139D3*
D74*
X4768504Y2716142D3*
D70*
X4868504D3*
X4968504D3*
X5068504D3*
X5168504D3*
X5268504D3*
X5368504D3*
X5468504D3*
X5568504D3*
X5668504D3*
X5768504D3*
X5868504D3*
X5968504D3*
X6068504D3*
X6168504D3*
X6268504D3*
X6368504D3*
X6468504D3*
X6568504D3*
X6668504D3*
X6668898Y3615748D3*
X6568898D3*
X6468898D3*
X6368898D3*
X6268898D3*
X6168898D3*
X6068898D3*
X5968898D3*
X5868898D3*
X5768898D3*
X5668898D3*
X5568898D3*
X5468898D3*
X5368898D3*
X5268898D3*
X5168898D3*
X5068898D3*
X4968898D3*
X4868898D3*
X4768898D3*
D62*
X7622047Y1283465D3*
D60*
Y791339D3*
X7425197Y1283465D3*
Y791339D3*
D36*
X7700787Y1037402D3*
X7346457D3*
D85*
X9114781Y1430832D3*
X8808554Y1124605D3*
X8961667Y1277719D3*
D37*
X9629685Y1051575D3*
D38*
X9404476Y831790D3*
D88*
X8811293Y9115962D3*
X9117520Y8809735D3*
X8964406Y8962846D3*
D37*
X9190551Y9630866D3*
D38*
X9410335Y9405657D3*
D91*
X1119077Y8809325D3*
X1425304Y9115552D3*
X1272192Y8962438D3*
D37*
X604173Y9188583D3*
D38*
X829382Y9408367D3*
D94*
X1430832Y1121440D3*
X1124605Y1427667D3*
X1277719Y1274554D3*
D37*
X1051575Y606535D3*
D38*
X831790Y831744D3*
D62*
X6893701Y1283465D3*
D60*
Y791339D3*
X6696850Y1283465D3*
Y791339D3*
D36*
X6972441Y1037402D3*
X6618110D3*
D58*
X4684252Y8193701D3*
Y8093701D3*
Y7993701D3*
Y7893701D3*
Y7793701D3*
Y7693701D3*
Y7593701D3*
Y7493701D3*
Y7393701D3*
Y7293701D3*
Y7193701D3*
Y7093701D3*
Y6993701D3*
Y6893701D3*
Y6793701D3*
Y6693701D3*
Y6593701D3*
Y6493701D3*
Y6393701D3*
Y6293701D3*
Y6193701D3*
Y6093701D3*
Y5993701D3*
Y5893701D3*
X5583858Y6893701D3*
Y6793701D3*
Y6693701D3*
Y6593701D3*
Y6493701D3*
Y6393701D3*
Y6293701D3*
Y6193701D3*
Y6093701D3*
Y5993701D3*
Y5893701D3*
Y6993701D3*
Y7093701D3*
Y7193701D3*
Y7293701D3*
Y7393701D3*
Y7493701D3*
Y7593701D3*
Y7693701D3*
Y7793701D3*
Y7893701D3*
Y7993701D3*
Y8093701D3*
Y8193701D3*
X4833858Y8194094D3*
Y8094094D3*
Y7994094D3*
Y7894094D3*
Y7794094D3*
Y7694094D3*
Y7594094D3*
Y7494094D3*
Y7394094D3*
Y7294094D3*
Y7194094D3*
Y7094094D3*
Y6994094D3*
Y6894094D3*
Y6794094D3*
Y6694094D3*
Y6594094D3*
Y6494094D3*
Y6394094D3*
Y6294094D3*
Y6194094D3*
Y6094094D3*
Y5994094D3*
Y5894094D3*
X4933858Y6894094D3*
X5033858D3*
X5133858D3*
X5233858D3*
X5333858D3*
X5433858D3*
Y6794094D3*
Y6694094D3*
Y6594094D3*
Y6494094D3*
Y6394094D3*
Y6294094D3*
Y6194094D3*
Y6094094D3*
Y5994094D3*
Y5894094D3*
Y6994094D3*
Y7094094D3*
Y7194094D3*
Y7294094D3*
Y7394094D3*
Y7494094D3*
Y7594094D3*
Y7694094D3*
Y7794094D3*
Y7894094D3*
Y7994094D3*
Y8094094D3*
Y8194094D3*
X4933858Y6394094D3*
X5033858D3*
X5133858D3*
X5233858D3*
X5333858D3*
D72*
X6653543Y4755660D3*
D66*
X6753543D3*
X6653543Y4855659D3*
X6753543D3*
X6653543Y4955660D3*
X6753543D3*
X6653543Y5055660D3*
X6753543D3*
X6653543Y5155659D3*
X6753543D3*
X6653543Y5255659D3*
X6753543D3*
X6653543Y5355660D3*
X6753543D3*
X6653543Y5455659D3*
X6753543D3*
D52*
X2570866Y4976377D3*
X2586614Y5076386D3*
X2570866Y5176398D3*
X2586614Y5276408D3*
X2570866Y5376417D3*
X2586614Y4876378D3*
D50*
X9236220Y5019685D3*
D48*
Y4921260D3*
X9314961D3*
Y5019685D3*
D46*
X9421654Y4733465D3*
Y5207480D3*
M02*
