M48
INCH
T01C0.0315
T02C0.0354
T03C0.0362
T04C0.0433
T05C0.0472
T06C0.0709
T07C0.0906
T08C0.1063
T09C0.1378
T10C0.2756
%
T01
X+055717Y+056787
X+056616Y+058362
X+060689Y+053019
X+059633Y+052189
X+058689Y+049019
X+057648Y+048426
X+063152Y+051019
X+064152Y+049557
X+064689Y+046009
X+065169Y+055429
X+062395Y+061825
X+051339Y+067651
X+051339Y+071036
X+045289Y+068385
X+044922Y+067900
X+046199Y+064445
X+046199Y+055429
X+044136Y+052189
X+045657Y+051304
X+044922Y+046009
X+045289Y+045058
X+050152Y+032167
X+053685Y+032167
X+059200Y+027873
X+074252Y+014583
X+086174Y+013568
X+086174Y+012149
X+087997Y+014583
X+076483Y+055603
X+081443Y+073400
X+082162Y+080984
X+061614Y+080984
X+043125Y+074404
X+037569Y+074704
X+035831Y+072432
X+027157Y+072432
X+033737Y+020732
T02
X+056717Y+041528
X+055717Y+041528
X+055689Y+036157
X+056689Y+036157
X+057689Y+036157
X+058689Y+036157
X+059689Y+036157
X+060689Y+036157
X+061689Y+036157
X+062689Y+036157
X+063689Y+036157
X+064689Y+036157
X+065689Y+036157
X+066689Y+036157
X+066685Y+034661
X+065685Y+034661
X+064685Y+034661
X+063685Y+034661
X+062685Y+034661
X+061685Y+034661
X+060685Y+034661
X+059685Y+034661
X+058685Y+034661
X+057685Y+034661
X+056685Y+034661
X+055685Y+034661
X+054685Y+034661
X+053685Y+034661
X+052685Y+034661
X+051685Y+034661
X+050685Y+034661
X+049685Y+034661
X+048685Y+034661
X+047685Y+034661
X+047689Y+036157
X+048689Y+036157
X+049689Y+036157
X+050689Y+036157
X+051689Y+036157
X+052689Y+036157
X+053689Y+036157
X+054689Y+036157
X+054685Y+028661
X+055685Y+028661
X+056685Y+028661
X+057685Y+028661
X+058685Y+028661
X+059685Y+028661
X+060685Y+028661
X+061685Y+028661
X+062685Y+028661
X+063685Y+028661
X+064685Y+028661
X+065685Y+028661
X+066685Y+028661
X+066685Y+027161
X+065685Y+027161
X+064685Y+027161
X+063685Y+027161
X+062685Y+027161
X+061685Y+027161
X+060685Y+027161
X+059685Y+027161
X+058685Y+027161
X+057685Y+027161
X+056685Y+027161
X+055685Y+027161
X+054685Y+027161
X+053685Y+027161
X+052685Y+027161
X+051685Y+027161
X+050685Y+027161
X+049685Y+027161
X+048685Y+027161
X+047685Y+027161
X+047685Y+028661
X+048685Y+028661
X+049685Y+028661
X+050685Y+028661
X+051685Y+028661
X+052685Y+028661
X+053685Y+028661
X+066535Y+047557
X+066535Y+048557
X+067535Y+048557
X+067535Y+047557
X+067535Y+049557
X+066535Y+049557
X+066535Y+050557
X+066535Y+051557
X+067535Y+051557
X+067535Y+050557
X+067535Y+052557
X+066535Y+052557
X+066535Y+053557
X+066535Y+054557
X+067535Y+054557
X+067535Y+053557
X+060906Y+058362
X+060906Y+059362
X+060906Y+060362
X+060906Y+061362
X+060906Y+062362
X+060906Y+063362
X+060906Y+065213
X+060906Y+066213
X+060906Y+067213
X+060906Y+068213
X+060906Y+069213
X+060906Y+070213
X+060906Y+071213
X+060906Y+072213
X+055839Y+071937
X+055839Y+070937
X+055839Y+069937
X+055839Y+068937
X+055839Y+067937
X+055839Y+066937
X+055839Y+065937
X+055839Y+064937
X+055839Y+063937
X+055839Y+062937
X+055839Y+061937
X+055839Y+060937
X+055839Y+059937
X+055839Y+058937
X+054339Y+058941
X+054339Y+059941
X+054339Y+060941
X+054339Y+061941
X+054339Y+062941
X+054339Y+063941
X+053339Y+063941
X+052339Y+063941
X+051339Y+063941
X+050339Y+063941
X+049339Y+063941
X+048339Y+063941
X+048339Y+062941
X+048339Y+061941
X+048339Y+060941
X+048339Y+059941
X+048339Y+058941
X+046843Y+058937
X+046843Y+059937
X+046843Y+060937
X+046843Y+061937
X+046843Y+062937
X+046843Y+063937
X+046843Y+064937
X+046843Y+065937
X+046843Y+066937
X+046843Y+067937
X+046843Y+068937
X+046843Y+069937
X+046843Y+070937
X+046843Y+071937
X+046843Y+072937
X+046843Y+073937
X+046843Y+074937
X+046843Y+075937
X+046843Y+076937
X+046843Y+077937
X+046843Y+078937
X+046843Y+079937
X+046843Y+080937
X+046843Y+081937
X+048339Y+081941
X+048339Y+080941
X+048339Y+079941
X+048339Y+078941
X+048339Y+077941
X+048339Y+076941
X+048339Y+075941
X+048339Y+074941
X+048339Y+073941
X+048339Y+072941
X+048339Y+071941
X+048339Y+070941
X+048339Y+069941
X+048339Y+068941
X+049339Y+068941
X+050339Y+068941
X+051339Y+068941
X+052339Y+068941
X+053339Y+068941
X+054339Y+068941
X+054339Y+067941
X+054339Y+066941
X+054339Y+065941
X+054339Y+064941
X+054339Y+069941
X+054339Y+070941
X+054339Y+071941
X+054339Y+072941
X+054339Y+073941
X+054339Y+074941
X+054339Y+075941
X+054339Y+076941
X+054339Y+077941
X+054339Y+078941
X+054339Y+079941
X+054339Y+080941
X+054339Y+081941
X+055839Y+081937
X+055839Y+080937
X+055839Y+079937
X+055839Y+078937
X+055839Y+077937
X+055839Y+076937
X+055839Y+075937
X+055839Y+074937
X+055839Y+073937
X+055839Y+072937
X+048339Y+067941
X+048339Y+066941
X+048339Y+065941
X+048339Y+064941
X+041965Y+065348
X+041965Y+064348
X+041965Y+063348
X+041965Y+062348
X+041965Y+061348
X+041965Y+060348
X+041965Y+059348
X+041965Y+058348
X+041968Y+066900
X+041968Y+067900
X+041968Y+068900
X+041968Y+069900
X+041968Y+070900
X+041968Y+071900
X+041968Y+072900
X+041968Y+073900
X+041968Y+074900
X+041968Y+075900
X+025709Y+053764
X+025866Y+052764
X+025709Y+051764
X+025866Y+050764
X+025709Y+049764
X+025866Y+048764
T03
X+092362Y+050197
X+093150Y+050197
X+093150Y+049213
X+092362Y+049213
T04
X+032804Y+031656
X+032804Y+033625
X+032804Y+035593
X+032804Y+029687
T05
X+076220Y+012835
X+074252Y+012835
X+074252Y+007913
X+076220Y+007913
X+068937Y+007913
X+066969Y+007913
X+066969Y+012835
X+068937Y+012835
T06
X+077008Y+010374
X+073465Y+010374
X+069724Y+010374
X+066181Y+010374
T07
X+094217Y+047335
X+094217Y+052075
T08
X+096297Y+010516
X+010516Y+006065
X+006042Y+091886
X+091906Y+096309
T09
X+022874Y+079488
X+022480Y+068878
X+022480Y+033485
X+022874Y+022913
X+079449Y+022913
X+079881Y+033485
X+079881Y+068878
X+079449Y+079488
T10
X+094045Y+008318
X+008318Y+008317
X+008294Y+094084
X+094103Y+094057
T00
M30
